<?xml version="1.0" encoding="UTF-8"?>
<svg version="1.1" xmlns="http://www.w3.org/2000/svg" width="1462" height="1335">
<path d="M0 0 C1.23591096 -0.00247617 1.23591096 -0.00247617 2.49678981 -0.00500236 C5.25704503 -0.00931541 8.01724658 -0.00652979 10.77750313 -0.00377727 C12.78525817 -0.00542746 14.79301289 -0.00751399 16.80076706 -0.00999737 C22.33820359 -0.01556658 27.87562465 -0.01489113 33.41306308 -0.01321978 C39.42990903 -0.01248927 45.44675059 -0.01751024 51.46359468 -0.0217948 C62.015895 -0.02849642 72.56819196 -0.03147253 83.12049401 -0.03192973 C94.44375304 -0.03243216 105.76700849 -0.03507946 117.09026635 -0.04033732 C117.80536772 -0.04066746 118.5204691 -0.04099759 119.25724021 -0.04133773 C122.16974088 -0.04268773 125.08224154 -0.0440504 127.99474219 -0.04542983 C162.4759075 -0.06173196 196.95707213 -0.06811845 231.43824063 -0.0728777 C248.60874188 -0.07526103 265.77924273 -0.07896454 282.94974368 -0.0829148 C338.02963209 -0.09557941 393.10952048 -0.10636316 448.18941033 -0.10975526 C450.82192424 -0.1099175 453.45443816 -0.11008306 456.08695207 -0.11024964 C461.36648359 -0.11058344 466.64601512 -0.11091392 471.92554665 -0.1112442 C478.10657031 -0.1116311 484.28759397 -0.11202071 490.46861763 -0.11241527 C492.23767552 -0.11252769 494.00673341 -0.1126391 495.7757913 -0.11274952 C552.58765098 -0.11629869 609.39949802 -0.13137595 666.21135287 -0.15468726 C707.03429702 -0.17143114 747.85723877 -0.18690489 788.68018639 -0.19142222 C789.51990785 -0.19151571 790.3596293 -0.1916092 791.22479686 -0.19170551 C809.65977661 -0.19372467 828.09475632 -0.19488062 846.52973617 -0.1952341 C853.12638329 -0.19537027 859.7230304 -0.19557926 866.31967751 -0.19582735 C867.96074543 -0.19588891 869.60181335 -0.19594723 871.24288127 -0.1960023 C897.38160828 -0.19692173 923.52032208 -0.20688534 949.65904475 -0.22145979 C975.99163726 -0.23608356 1002.32421357 -0.24111279 1028.65680943 -0.23304025 C1032.29844038 -0.23192492 1035.94007135 -0.23091425 1039.58170235 -0.22996593 C1040.29553823 -0.22977596 1041.00937412 -0.22958599 1041.74484139 -0.22939027 C1053.03166205 -0.22666038 1064.31845267 -0.23398649 1075.6052668 -0.24553929 C1086.71338229 -0.25669879 1097.82146366 -0.25684278 1108.92958208 -0.24616911 C1114.86762671 -0.24077185 1120.80556728 -0.240084 1126.74360333 -0.25267783 C1132.15266918 -0.26405395 1137.56154673 -0.26145157 1142.97060619 -0.24801075 C1144.9084444 -0.24558837 1146.84629728 -0.24811938 1148.78411928 -0.25640723 C1164.549913 -0.31936719 1179.67526193 1.30012831 1194.86798966 5.7526505 C1196.16579361 6.13115148 1196.16579361 6.13115148 1197.48981583 6.51729894 C1238.07966618 18.88879994 1271.49475174 47.7907437 1291.55548966 84.90499425 C1303.73650266 108.04662172 1309.84158338 133.10722977 1309.74746525 159.2396071 C1309.74986249 160.59662154 1309.75313238 161.95363467 1309.75718185 163.31064519 C1309.76572413 167.00868079 1309.76200814 170.70661366 1309.75612613 174.4046506 C1309.75192878 178.43972627 1309.759373 182.4747841 1309.76527864 186.50985533 C1309.77401684 193.57183442 1309.77536124 200.6337845 1309.77177536 207.69576764 C1309.76645696 218.197636 1309.77257512 228.69947639 1309.7808583 239.20134171 C1309.7960847 259.05130832 1309.79780475 278.90126214 1309.79533527 298.75123336 C1309.79350132 314.08203784 1309.79526437 329.41283814 1309.79955971 344.74364209 C1309.80016212 346.94763523 1309.80076332 349.15162838 1309.80136332 351.35562152 C1309.80227059 354.67699834 1309.80317926 357.99837515 1309.80409567 361.31975196 C1309.81252324 392.19378641 1309.81686226 423.06781928 1309.81268895 453.94185472 C1309.81253257 455.10533685 1309.81237619 456.26881899 1309.81221508 457.46755816 C1309.81140932 463.36429389 1309.81056355 469.26102962 1309.80970178 475.15776535 C1309.80953069 476.3288357 1309.8093596 477.49990606 1309.80918333 478.70646339 C1309.80883667 481.07465132 1309.80848814 483.44283925 1309.80813774 485.81102718 C1309.80278114 522.65591694 1309.81071003 559.50078278 1309.8291713 596.34566808 C1309.84989795 637.76009317 1309.86061272 679.17450344 1309.85659581 720.588934 C1309.85620048 725.00681603 1309.85583893 729.42469805 1309.85549843 733.84258008 C1309.85536234 735.47421973 1309.85536234 735.47421973 1309.85522349 737.13882179 C1309.85405864 753.54320249 1309.8606973 769.9475682 1309.87131035 786.35194516 C1309.88337192 805.01406966 1309.8849103 823.67616118 1309.87252019 842.33828618 C1309.86590115 852.77435358 1309.86750058 863.21034207 1309.8811087 873.64640312 C1309.88937544 880.62779063 1309.88662685 887.60911924 1309.87513343 894.590502 C1309.868899 898.56132611 1309.86721877 902.53199667 1309.87899677 906.50281169 C1309.93370408 926.2745142 1309.56244849 945.65477552 1303.80548966 964.7526505 C1303.55202775 965.61253575 1303.29856583 966.47242101 1303.03742325 967.35836339 C1290.39222643 1008.62023988 1261.06521189 1042.31024254 1223.24298966 1062.4401505 C1198.56356022 1075.15008726 1172.42004004 1080.29150187 1144.78752625 1080.2663157 C1143.55973944 1080.26915792 1142.33195263 1080.27200013 1141.06696016 1080.27492848 C1137.67945989 1080.28178394 1134.29200903 1080.28426729 1130.90450541 1080.2848559 C1127.21154808 1080.28659538 1123.51860153 1080.29408648 1119.82565057 1080.30083245 C1113.36030246 1080.3118582 1106.89495822 1080.31924896 1100.42960274 1080.32423139 C1090.81592529 1080.33165663 1081.20226131 1080.34474416 1071.58859182 1080.35897714 C1055.41518511 1080.38276212 1039.241776 1080.40197702 1023.06836045 1080.41857648 C1007.05743689 1080.43502414 991.04651782 1080.45350968 975.03559983 1080.47470975 C974.03964137 1080.47602736 973.04368291 1080.47734496 972.01754389 1080.4787025 C966.95945906 1080.48540469 961.90137429 1080.49214323 956.84328952 1080.49889576 C921.02812231 1080.54664354 885.2129509 1080.58983295 849.39777482 1080.63033605 C814.60643057 1080.66969175 779.81508979 1080.71111569 745.02375138 1080.75533605 C743.95110349 1080.75669858 742.8784556 1080.75806111 741.77330324 1080.75946492 C731.00121408 1080.77315044 720.22912498 1080.78687796 709.45703591 1080.80063626 C687.51355612 1080.8286619 665.57007598 1080.85640718 643.62659562 1080.8839829 C642.11324703 1080.8858852 642.11324703 1080.8858852 640.56932575 1080.88782592 C573.21055269 1080.97246463 505.85177174 1081.05056807 438.49298966 1081.1276505 C438.03546814 1082.10622518 437.57794663 1083.08479985 437.10656083 1084.09302831 C435.38749695 1087.76817104 433.66521027 1091.44179611 431.94201005 1095.11500096 C431.20056738 1096.69660786 430.45996708 1098.27860996 429.72026932 1099.86103368 C424.41123048 1111.21659621 418.96712252 1122.38068789 412.49298966 1133.1276505 C411.99734513 1133.95474523 411.5017006 1134.78183995 410.99103653 1135.63399816 C395.48681636 1161.38174168 378.0369815 1185.39585963 357.77814591 1207.619838 C356.18954946 1209.36322077 354.6149817 1211.11944829 353.05158341 1212.885463 C330.11177419 1238.52608433 302.13358185 1260.72991161 272.49298966 1278.1276505 C271.76724747 1278.56013097 271.04150528 1278.99261144 270.29377091 1279.43819737 C224.29098578 1306.79221887 173.53230146 1324.06939939 120.49298966 1331.1276505 C119.24775528 1331.29538976 119.24775528 1331.29538976 117.97736466 1331.46651769 C107.52795005 1332.81964858 97.02148425 1333.40986167 86.49891007 1333.8514359 C84.4872393 1333.93771651 82.47617243 1334.037734 80.46515763 1334.13814855 C68.82503585 1334.54658692 59.22791379 1333.26744793 50.49298966 1325.1276505 C43.58386809 1318.58722915 40.32894178 1311.14629388 39.99298966 1301.6276505 C40.32451632 1292.52670904 43.21330707 1285.60612782 49.46173966 1278.9870255 C53.17371762 1275.58913798 57.29550828 1272.88499183 61.49298966 1270.1276505 C72.065068 1262.9964225 82.43972152 1255.73765355 91.15314591 1246.34249425 C92.49298966 1245.1276505 92.49298966 1245.1276505 94.49298966 1245.1276505 C94.7392006 1244.55917394 94.98541153 1243.99069737 95.23908341 1243.40499425 C96.70250147 1240.74713528 98.45872442 1238.88306371 100.55548966 1236.6901505 C117.36294174 1218.19391136 128.31301832 1194.75016121 134.24298966 1170.6276505 C134.44198868 1169.82198644 134.64098771 1169.01632237 134.846017 1168.18624425 C138.25831427 1153.40059908 138.79127777 1138.87895991 138.69880021 1123.77389073 C138.68053844 1120.69836632 138.67829149 1117.62314549 138.67853653 1114.54757237 C138.67361856 1112.53389798 138.66778903 1110.52022556 138.66095841 1108.50655675 C138.65928917 1107.17135739 138.65928917 1107.17135739 138.65758622 1105.80918431 C138.59595492 1097.23037069 138.04189674 1088.68629592 137.49298966 1080.1276505 C136.81051793 1080.12949409 136.12804619 1080.13133767 135.4248935 1080.13323712 C118.72748412 1080.177635 102.03009373 1080.21061256 85.33263886 1080.23127484 C77.25748667 1080.24153557 69.18237417 1080.25549482 61.10724747 1080.27852941 C54.05924516 1080.29862429 47.01127163 1080.3114046 39.96324146 1080.31582749 C36.24020344 1080.31840798 32.51724765 1080.32436095 28.7942363 1080.33911061 C-11.24085756 1080.4914995 -11.24085756 1080.4914995 -29.00701034 1076.0026505 C-30.29236679 1075.68505773 -30.29236679 1075.68505773 -31.60369003 1075.36104894 C-58.64092566 1068.32721266 -82.41140314 1054.38733394 -102.50701034 1035.1276505 C-103.3745494 1034.3232755 -104.24208847 1033.5189005 -105.13591659 1032.6901505 C-117.44138939 1020.92730879 -126.74892848 1007.2136556 -134.50701034 992.1276505 C-134.9841246 991.21813634 -134.9841246 991.21813634 -135.47087753 990.29024816 C-147.33383424 967.45064759 -151.67553098 942.16694353 -151.63843811 916.63841081 C-151.6400913 915.30030819 -151.64217919 913.96220605 -151.64465821 912.62410471 C-151.65018882 908.95994009 -151.64955911 905.295799 -151.64788062 901.63163155 C-151.6471463 897.6401716 -151.65217998 893.64871811 -151.65645564 889.65726095 C-151.66401824 881.74639477 -151.66622781 873.83553534 -151.66678469 865.92466592 C-151.66770006 856.44638488 -151.67437272 846.96811005 -151.68113152 837.4898317 C-151.69717624 814.58330581 -151.70309309 791.6767806 -151.70788026 768.7702501 C-151.71021777 757.92948075 -151.71382059 747.08871193 -151.71757564 736.24794299 C-151.73040987 699.12356515 -151.7411291 661.99918761 -151.74457824 624.8748076 C-151.74479987 622.54522811 -151.74502166 620.21564862 -151.74524359 617.88606914 C-151.74546423 615.5509326 -151.74568472 613.21579606 -151.74590504 610.88065952 C-151.74634759 606.19614414 -151.74679471 601.51162877 -151.74724472 596.82711339 C-151.74735411 595.6656297 -151.7474635 594.504146 -151.7475762 593.30746583 C-151.75120602 555.65483248 -151.76712391 518.00221839 -151.79043508 480.34959241 C-151.815048 440.52138111 -151.82875176 400.69318081 -151.82994616 360.86496168 C-151.83011761 356.49023227 -151.83033303 352.11550285 -151.83058059 347.74077344 C-151.83063636 346.66362772 -151.83069213 345.58648201 -151.83074959 344.47669551 C-151.83189876 327.1653537 -151.84290936 309.8540317 -151.85746765 292.54269656 C-151.87185575 275.13226694 -151.87505658 257.72186263 -151.86702767 240.31142869 C-151.86258232 229.97800193 -151.86638808 219.64465709 -151.88226618 209.31124115 C-151.89205697 202.39558017 -151.89079903 195.47997622 -151.88082995 188.5643157 C-151.87546733 184.63259787 -151.87463159 180.70103668 -151.88733867 176.76933219 C-152.04445096 124.82004195 -139.22475311 82.26280746 -102.88201034 44.1276505 C-76.03314406 18.03985444 -37.82100312 -0.10829554 0 0 Z M-66.15544784 98.1745255 C-82.2202303 118.34890347 -87.85768642 141.68647578 -87.75869262 167.02210641 C-87.7615995 168.34202095 -87.76450639 169.6619355 -87.76750135 171.02184746 C-87.77521865 174.65385842 -87.77066729 178.28576165 -87.76394545 181.91777066 C-87.75883905 185.88118124 -87.76540486 189.84457621 -87.77043211 193.80798453 C-87.77763419 200.7439616 -87.7774495 207.6799075 -87.77233779 214.61588597 C-87.76475715 224.93006659 -87.76864844 235.24422103 -87.77475441 245.55840148 C-87.78527536 263.98172243 -87.78437733 282.4050295 -87.77859658 300.82835177 C-87.77356282 316.95041704 -87.77225331 333.07247723 -87.77464187 349.19454312 C-87.77479464 350.26451269 -87.77494741 351.33448226 -87.77510481 352.43687514 C-87.7757275 356.78036527 -87.7763643 361.1238554 -87.77702434 365.46734552 C-87.78314035 406.2003523 -87.77759849 446.93335024 -87.76683054 487.66635566 C-87.75733888 523.84657391 -87.75818939 560.02677808 -87.76775253 596.2069962 C-87.77846404 636.86765277 -87.78270726 677.52830152 -87.776528 718.1889593 C-87.77588658 722.52416408 -87.7752609 726.85936886 -87.77464187 731.19457364 C-87.77448372 732.26199069 -87.77432556 733.32940773 -87.77416261 734.42917074 C-87.77188867 750.54087075 -87.77454635 766.65256512 -87.77960098 782.76426435 C-87.78532005 801.0850981 -87.78388859 819.40591582 -87.77303949 837.72674758 C-87.76716938 847.97743013 -87.76678004 858.22807793 -87.77433184 868.47875957 C-87.77882147 875.3289169 -87.77601667 882.17904641 -87.7673223 889.02919962 C-87.76257259 892.92996786 -87.7609217 896.83066714 -87.76813427 900.73143316 C-87.77583767 904.94069105 -87.76797299 909.14978105 -87.75869262 913.35903573 C-87.76337495 914.5597332 -87.76805729 915.76043067 -87.77288151 916.99751291 C-87.64901576 945.12706603 -78.0279017 969.03992712 -58.69451034 989.3776505 C-35.72669757 1011.45107804 -6.97689951 1016.47148044 23.72370255 1016.38302159 C25.35705596 1016.38578191 26.99040801 1016.38946803 28.62375748 1016.39399266 C32.09877769 1016.40200969 35.57373395 1016.40429766 39.04876244 1016.40204549 C44.55133667 1016.39917836 50.05378609 1016.41368544 55.55632889 1016.43102574 C71.18843637 1016.47774484 86.82053206 1016.50201059 102.45270646 1016.50850987 C111.11845846 1016.51226446 119.78406577 1016.53031154 128.44975573 1016.56360424 C133.91336588 1016.58374427 139.37660115 1016.58622702 144.84023309 1016.57532406 C148.23866667 1016.5727099 151.63688319 1016.58675255 155.03526032 1016.60540509 C156.60373052 1016.61070767 158.17224117 1016.60926352 159.74069512 1016.60036969 C168.05798432 1016.55702544 175.1983849 1016.72597419 182.49298966 1021.1276505 C183.14355867 1021.49493449 183.79412768 1021.86221848 184.4644109 1022.2406323 C190.79273885 1025.97261898 194.44337366 1032.28517199 196.34528458 1039.24776769 C198.02884607 1047.44836058 199.45139614 1055.64138623 200.55548966 1063.9401505 C200.72467911 1065.20971593 200.89386857 1066.47928136 201.06818497 1067.78731847 C202.34882713 1077.75164134 203.14923968 1087.72568175 203.74298966 1097.7526505 C203.80451722 1098.7818813 203.80451722 1098.7818813 203.86728776 1099.83190465 C204.35850696 1108.27044394 204.6191858 1116.67558736 204.49298966 1125.1276505 C204.47703751 1126.28490636 204.47703751 1126.28490636 204.4607631 1127.46554112 C203.46049267 1175.18056858 190.24965334 1218.44822565 162.49298966 1257.1276505 C166.02990429 1258.30662204 167.12133447 1257.88131535 170.62970841 1256.82686925 C171.66965958 1256.51451329 172.70961075 1256.20215734 173.7810756 1255.88033605 C174.90288224 1255.52882482 176.02468888 1255.17731359 177.18048966 1254.8151505 C178.34225724 1254.45268224 179.50402482 1254.09021398 180.70099747 1253.71676183 C222.26148639 1240.42405595 260.23294861 1218.46039153 292.49298966 1189.1276505 C293.14847794 1188.53387609 293.80396622 1187.94010167 294.47931778 1187.32833409 C304.13073043 1178.59708527 304.13073043 1178.59708527 312.91486466 1169.01436925 C314.74086048 1166.83130989 316.67834358 1164.77282803 318.61798966 1162.6901505 C324.48423495 1156.18431458 329.72024255 1149.20438164 334.95441544 1142.18819737 C335.9011366 1140.92029407 336.85178194 1139.65529614 337.80890763 1138.39522862 C359.53073807 1109.78299892 375.69535277 1076.47860973 388.44611466 1043.03780675 C392.33962766 1032.90759188 396.224676 1024.39303945 406.45600903 1019.43235487 C412.80811381 1016.6710415 418.48229851 1016.4303476 425.33467972 1016.50238061 C426.58938783 1016.49552221 427.84409594 1016.48866381 429.1368255 1016.48159757 C432.60485017 1016.46333195 436.07216484 1016.47594365 439.54016599 1016.49378305 C443.3187367 1016.50765725 447.09721051 1016.49237072 450.87577355 1016.48082823 C457.49357516 1016.46459162 464.11116955 1016.46679574 470.72897255 1016.48116422 C480.57032097 1016.50243411 490.41150188 1016.49497062 500.25285674 1016.48158315 C516.81361736 1016.4598266 533.3743015 1016.46098911 549.9350673 1016.47493482 C566.34316683 1016.48861816 582.75120897 1016.49108929 599.15931046 1016.47895932 C600.18030722 1016.47820692 601.20130399 1016.47745452 602.25324005 1016.47667932 C607.43893003 1016.47278599 612.6246198 1016.46867162 617.81030953 1016.46445825 C654.54487323 1016.4348718 691.27941188 1016.42690684 728.01398575 1016.43307042 C730.23505636 1016.43343641 732.45612697 1016.43380157 734.67719758 1016.43416592 C736.32788993 1016.43443681 736.32788993 1016.43443681 738.0119296 1016.43471317 C743.57900089 1016.43561955 749.14607217 1016.43649764 754.71314347 1016.43734288 C756.36889874 1016.43759595 756.36889874 1016.43759595 758.05810362 1016.43785413 C783.68174528 1016.44161265 809.30538389 1016.43754202 834.92902482 1016.4311173 C836.57494831 1016.43071185 836.57494831 1016.43071185 838.25412278 1016.43029821 C863.31790299 1016.42407445 888.38168093 1016.41518209 913.44545853 1016.40212083 C914.49964487 1016.40157477 915.55383121 1016.40102871 916.63996259 1016.40046611 C926.12452457 1016.39554083 935.60908651 1016.39056097 945.0936482 1016.38508465 C969.74010659 1016.37088555 994.38653455 1016.36492461 1019.032996 1016.37362053 C1034.49886213 1016.37891234 1049.96471876 1016.37753342 1065.43058437 1016.37091748 C1075.21140084 1016.36700412 1084.9921786 1016.36881704 1094.77299097 1016.37876763 C1101.3164694 1016.38489187 1107.85992119 1016.38375037 1114.40339879 1016.37687374 C1118.12497933 1016.37318116 1121.84648563 1016.37256092 1125.56806016 1016.38097779 C1162.00853662 1016.45803826 1191.79133842 1013.54141101 1219.18048966 986.9401505 C1243.02069003 962.89597732 1246.12753665 932.85574394 1246.00065851 900.49402765 C1245.98948786 896.49548685 1246.00180546 892.49700109 1246.010966 888.49846458 C1246.02380601 881.50849282 1246.02195865 874.51864817 1246.01018631 867.52867627 C1245.99272856 857.13420529 1245.99833078 846.73983336 1246.00835322 836.3453571 C1246.02550785 817.77708438 1246.02002837 799.20887088 1246.00499604 780.64059941 C1245.99192795 764.39338603 1245.98675145 748.14619315 1245.9893142 731.89897466 C1245.98947461 730.81993461 1245.98963503 729.74089456 1245.98980031 728.62915633 C1245.99046392 724.24867663 1245.99116634 719.86819694 1245.99192565 715.48771725 C1245.998944 674.42654925 1245.98347673 633.36541736 1245.95730219 592.30425855 C1245.93418189 555.84124376 1245.92880199 519.37826863 1245.93903458 482.91524816 C1245.9416367 473.57509035 1245.94422174 464.23493254 1245.9466325 454.89477468 C1245.94692995 453.74480991 1245.9472274 452.59484515 1245.94753386 451.41003297 C1245.95515141 420.91815299 1245.94873434 390.42627624 1245.93793648 359.9343977 C1245.93678871 356.65291704 1245.93564553 353.37143638 1245.93450966 350.08995572 C1245.93375442 347.91322213 1245.93298877 345.73648854 1245.93221265 343.55975495 C1245.92655891 327.32184719 1245.92788113 311.08394971 1245.93244088 294.84604192 C1245.93755206 276.38227918 1245.93168047 257.91855483 1245.91154658 239.45480165 C1245.90057344 229.12673904 1245.89775486 218.79875193 1245.90683511 208.47068704 C1245.91206523 201.56656782 1245.90632907 194.66251303 1245.89178177 187.75840732 C1245.88379941 183.8285285 1245.88041848 179.89880193 1245.89035433 175.96892408 C1246.11406305 154.35434355 1246.11406305 154.35434355 1242.49298966 133.1276505 C1242.27574862 132.32178227 1242.05850758 131.51591403 1241.83468348 130.68562555 C1237.06038807 114.84238011 1228.16892132 101.65039938 1216.49298966 90.1276505 C1215.75306778 89.38901769 1215.01314591 88.65038487 1214.25080216 87.88936925 C1194.06322726 68.84797534 1168.83055966 63.48032526 1142.1101743 63.62707925 C1140.10520166 63.62320141 1138.10023179 63.61757203 1136.09526834 63.61036965 C1130.61211417 63.59570203 1125.12924794 63.60573248 1119.64610309 63.61998164 C1113.67085166 63.63107112 1107.69563902 63.61886112 1101.72039062 63.60967416 C1091.25671234 63.59678638 1080.7931076 63.59858521 1070.32943451 63.61045384 C1059.10873217 63.62311083 1047.88807707 63.62700709 1036.66736901 63.62033963 C1035.95716874 63.61992342 1035.24696846 63.61950721 1034.51524697 63.61907839 C1031.62245001 63.61735357 1028.72965309 63.6155657 1025.83685621 63.6136982 C998.92785316 63.59633205 972.01888496 63.59847108 945.10988152 63.61303449 C919.18160278 63.62704893 893.25333979 63.63407673 867.32505715 63.63132596 C865.69569739 63.63116308 864.06633763 63.63100104 862.43697787 63.63083985 C855.88904959 63.63018153 849.34112131 63.62947777 842.79319303 63.62871451 C824.49008768 63.62660305 806.18698239 63.62585038 787.88387692 63.6261313 C786.63374355 63.62614987 786.63374355 63.62614987 785.35835497 63.62616881 C758.80864828 63.62665808 732.25894648 63.63308064 705.70924199 63.64368844 C704.41787812 63.6442036 704.41787812 63.6442036 703.10042609 63.64472916 C689.12037975 63.65032758 675.14033355 63.65626191 661.16028736 63.66221822 C605.70843615 63.68582219 550.25661244 63.69201166 494.80475724 63.68160558 C491.30008373 63.68095237 487.79541022 63.68030105 484.29073671 63.67965008 C483.42421396 63.67948904 482.5576912 63.67932801 481.66491019 63.67916209 C472.06824235 63.67738258 462.47157451 63.67566043 452.87490666 63.67400765 C452.01429039 63.67385829 451.15367412 63.67370892 450.26697857 63.67355503 C404.6196834 63.66569558 358.97239067 63.67130621 313.32509637 63.68212095 C306.78401777 63.68367014 300.24293915 63.6851835 293.70186054 63.68669577 C291.26237329 63.68726401 288.82288604 63.6878455 286.38339879 63.68842751 C268.54574915 63.69262799 250.70810227 63.69482676 232.87045228 63.69174242 C232.06696116 63.69160381 231.26347004 63.6914652 230.43563071 63.69132239 C226.39030598 63.69061201 222.34498126 63.68986581 218.29965654 63.68910503 C189.05652465 63.68361462 159.81342176 63.68774789 130.57029621 63.70909358 C127.68833321 63.71115583 124.80637018 63.71317257 121.92440712 63.71515393 C120.86349722 63.71589035 120.86349722 63.71589035 119.78115479 63.71664165 C108.59031422 63.72414519 97.39949938 63.72164568 86.20865922 63.71498009 C75.20010285 63.70863928 64.1915858 63.71331097 53.18303609 63.72885839 C47.29643827 63.73687145 41.40994251 63.74016905 35.52334521 63.73028583 C30.16458729 63.72139114 24.80602544 63.72637442 19.44728534 63.74226527 C17.52432213 63.74557029 15.60134199 63.7438995 13.67839004 63.73653678 C-17.97839785 63.6243165 -44.80776837 73.91271836 -66.15544784 98.1745255 Z " fill="#000000" transform="translate(152.5070103406906,0.8723495006561279)"/>
</svg>
